<mxfile host="app.diagrams.net" modified="2022-06-22T02:10:18.466Z" agent="5.0 (Windows NT 10.0; Win64; x64) AppleWebKit/537.36 (KHTML, like Gecko) Chrome/102.0.5005.124 Safari/537.36 Edg/102.0.1245.41" etag="c8DppGFh-WD2-FN-KpX-" version="20.0.1" type="github">
  <diagram id="bdMP9Dl05ttPWQqJxeAd" name="第 1 页">
    <mxGraphModel dx="1422" dy="762" grid="1" gridSize="10" guides="1" tooltips="1" connect="1" arrows="1" fold="1" page="1" pageScale="1" pageWidth="827" pageHeight="1169" math="0" shadow="0">
      <root>
        <mxCell id="0" />
        <mxCell id="1" parent="0" />
        <mxCell id="h0yC3FJWzokE1WFjoLc8-2" value="案件上报" style="rounded=1;whiteSpace=wrap;html=1;fontSize=12;glass=0;strokeWidth=1;shadow=0;" vertex="1" parent="1">
          <mxGeometry x="354" y="100" width="120" height="40" as="geometry" />
        </mxCell>
        <mxCell id="h0yC3FJWzokE1WFjoLc8-3" value="拍照、取证" style="rounded=1;whiteSpace=wrap;html=1;fontSize=12;glass=0;strokeWidth=1;shadow=0;" vertex="1" parent="1">
          <mxGeometry x="354" y="180" width="120" height="40" as="geometry" />
        </mxCell>
        <mxCell id="h0yC3FJWzokE1WFjoLc8-4" value="" style="edgeStyle=orthogonalEdgeStyle;rounded=0;orthogonalLoop=1;jettySize=auto;html=1;" edge="1" parent="1" source="h0yC3FJWzokE1WFjoLc8-2" target="h0yC3FJWzokE1WFjoLc8-3">
          <mxGeometry relative="1" as="geometry" />
        </mxCell>
        <mxCell id="h0yC3FJWzokE1WFjoLc8-34" style="edgeStyle=orthogonalEdgeStyle;rounded=0;orthogonalLoop=1;jettySize=auto;html=1;entryX=0.5;entryY=0;entryDx=0;entryDy=0;" edge="1" parent="1" source="h0yC3FJWzokE1WFjoLc8-5" target="h0yC3FJWzokE1WFjoLc8-27">
          <mxGeometry relative="1" as="geometry" />
        </mxCell>
        <mxCell id="h0yC3FJWzokE1WFjoLc8-5" value="简易流程" style="rounded=1;whiteSpace=wrap;html=1;fontSize=12;glass=0;strokeWidth=1;shadow=0;" vertex="1" parent="1">
          <mxGeometry x="354" y="260" width="120" height="40" as="geometry" />
        </mxCell>
        <mxCell id="h0yC3FJWzokE1WFjoLc8-6" value="" style="edgeStyle=orthogonalEdgeStyle;rounded=0;orthogonalLoop=1;jettySize=auto;html=1;" edge="1" parent="1" source="h0yC3FJWzokE1WFjoLc8-3" target="h0yC3FJWzokE1WFjoLc8-5">
          <mxGeometry relative="1" as="geometry" />
        </mxCell>
        <mxCell id="h0yC3FJWzokE1WFjoLc8-9" value="查找照片、审核身份证" style="rounded=1;whiteSpace=wrap;html=1;fontSize=12;glass=0;strokeWidth=1;shadow=0;" vertex="1" parent="1">
          <mxGeometry x="354" y="585" width="120" height="40" as="geometry" />
        </mxCell>
        <mxCell id="h0yC3FJWzokE1WFjoLc8-14" value="填写当场处罚决定书" style="rounded=1;whiteSpace=wrap;html=1;fontSize=12;glass=0;strokeWidth=1;shadow=0;" vertex="1" parent="1">
          <mxGeometry x="354" y="670" width="120" height="40" as="geometry" />
        </mxCell>
        <mxCell id="h0yC3FJWzokE1WFjoLc8-15" value="" style="edgeStyle=orthogonalEdgeStyle;rounded=0;orthogonalLoop=1;jettySize=auto;html=1;" edge="1" parent="1" source="h0yC3FJWzokE1WFjoLc8-9" target="h0yC3FJWzokE1WFjoLc8-14">
          <mxGeometry relative="1" as="geometry" />
        </mxCell>
        <mxCell id="h0yC3FJWzokE1WFjoLc8-43" style="edgeStyle=orthogonalEdgeStyle;rounded=0;orthogonalLoop=1;jettySize=auto;html=1;entryX=0;entryY=0.5;entryDx=0;entryDy=0;" edge="1" parent="1" source="h0yC3FJWzokE1WFjoLc8-16" target="h0yC3FJWzokE1WFjoLc8-38">
          <mxGeometry relative="1" as="geometry" />
        </mxCell>
        <mxCell id="h0yC3FJWzokE1WFjoLc8-16" value="签字缴款" style="rounded=1;whiteSpace=wrap;html=1;fontSize=12;glass=0;strokeWidth=1;shadow=0;" vertex="1" parent="1">
          <mxGeometry x="234" y="760" width="120" height="40" as="geometry" />
        </mxCell>
        <mxCell id="h0yC3FJWzokE1WFjoLc8-17" value="" style="edgeStyle=orthogonalEdgeStyle;rounded=0;orthogonalLoop=1;jettySize=auto;html=1;" edge="1" parent="1" source="h0yC3FJWzokE1WFjoLc8-14" target="h0yC3FJWzokE1WFjoLc8-16">
          <mxGeometry relative="1" as="geometry" />
        </mxCell>
        <mxCell id="h0yC3FJWzokE1WFjoLc8-44" style="edgeStyle=orthogonalEdgeStyle;rounded=0;orthogonalLoop=1;jettySize=auto;html=1;entryX=1;entryY=0.5;entryDx=0;entryDy=0;" edge="1" parent="1" source="h0yC3FJWzokE1WFjoLc8-18" target="h0yC3FJWzokE1WFjoLc8-38">
          <mxGeometry relative="1" as="geometry" />
        </mxCell>
        <mxCell id="h0yC3FJWzokE1WFjoLc8-18" value="填写放行单" style="rounded=1;whiteSpace=wrap;html=1;fontSize=12;glass=0;strokeWidth=1;shadow=0;" vertex="1" parent="1">
          <mxGeometry x="474" y="760" width="120" height="40" as="geometry" />
        </mxCell>
        <mxCell id="h0yC3FJWzokE1WFjoLc8-19" value="" style="edgeStyle=orthogonalEdgeStyle;rounded=0;orthogonalLoop=1;jettySize=auto;html=1;" edge="1" parent="1" source="h0yC3FJWzokE1WFjoLc8-14" target="h0yC3FJWzokE1WFjoLc8-18">
          <mxGeometry relative="1" as="geometry" />
        </mxCell>
        <mxCell id="h0yC3FJWzokE1WFjoLc8-36" style="edgeStyle=orthogonalEdgeStyle;rounded=0;orthogonalLoop=1;jettySize=auto;html=1;entryX=0.5;entryY=0;entryDx=0;entryDy=0;" edge="1" parent="1" source="h0yC3FJWzokE1WFjoLc8-23" target="h0yC3FJWzokE1WFjoLc8-9">
          <mxGeometry relative="1" as="geometry">
            <mxPoint x="414" y="580" as="targetPoint" />
          </mxGeometry>
        </mxCell>
        <mxCell id="h0yC3FJWzokE1WFjoLc8-23" value="当事人身份证复印件" style="rounded=1;whiteSpace=wrap;html=1;fontSize=12;glass=0;strokeWidth=1;shadow=0;" vertex="1" parent="1">
          <mxGeometry x="354" y="500" width="120" height="40" as="geometry" />
        </mxCell>
        <mxCell id="h0yC3FJWzokE1WFjoLc8-24" style="edgeStyle=orthogonalEdgeStyle;rounded=0;orthogonalLoop=1;jettySize=auto;html=1;entryX=0.5;entryY=0;entryDx=0;entryDy=0;fontFamily=Helvetica;fontSize=12;fontColor=default;" edge="1" parent="1" target="h0yC3FJWzokE1WFjoLc8-23">
          <mxGeometry relative="1" as="geometry">
            <mxPoint x="414" y="440" as="sourcePoint" />
          </mxGeometry>
        </mxCell>
        <mxCell id="h0yC3FJWzokE1WFjoLc8-25" value="个人" style="edgeLabel;html=1;align=center;verticalAlign=middle;resizable=0;points=[];fontSize=12;fontFamily=Helvetica;fontColor=default;" vertex="1" connectable="0" parent="h0yC3FJWzokE1WFjoLc8-24">
          <mxGeometry x="0.5251" y="-4" relative="1" as="geometry">
            <mxPoint x="4" y="-22" as="offset" />
          </mxGeometry>
        </mxCell>
        <mxCell id="h0yC3FJWzokE1WFjoLc8-26" style="edgeStyle=orthogonalEdgeStyle;rounded=0;orthogonalLoop=1;jettySize=auto;html=1;exitX=1;exitY=0.5;exitDx=0;exitDy=0;entryX=0;entryY=0.5;entryDx=0;entryDy=0;fontFamily=Helvetica;fontSize=12;fontColor=default;" edge="1" parent="1" source="h0yC3FJWzokE1WFjoLc8-27" target="h0yC3FJWzokE1WFjoLc8-29">
          <mxGeometry relative="1" as="geometry" />
        </mxCell>
        <mxCell id="h0yC3FJWzokE1WFjoLc8-27" value="是否机构单位" style="rhombus;whiteSpace=wrap;html=1;rounded=1;glass=0;strokeWidth=1;shadow=0;" vertex="1" parent="1">
          <mxGeometry x="363.5" y="340" width="101" height="100" as="geometry" />
        </mxCell>
        <mxCell id="h0yC3FJWzokE1WFjoLc8-28" style="edgeStyle=orthogonalEdgeStyle;rounded=0;orthogonalLoop=1;jettySize=auto;html=1;entryX=1;entryY=0.5;entryDx=0;entryDy=0;fontFamily=Helvetica;fontSize=12;fontColor=default;" edge="1" parent="1" source="h0yC3FJWzokE1WFjoLc8-29" target="h0yC3FJWzokE1WFjoLc8-23">
          <mxGeometry relative="1" as="geometry">
            <Array as="points">
              <mxPoint x="604" y="520" />
            </Array>
          </mxGeometry>
        </mxCell>
        <mxCell id="h0yC3FJWzokE1WFjoLc8-29" value="单位信息" style="swimlane;fontSize=14;" vertex="1" parent="1">
          <mxGeometry x="534" y="290" width="160" height="200" as="geometry" />
        </mxCell>
        <mxCell id="h0yC3FJWzokE1WFjoLc8-30" value="授权委托书" style="rounded=1;whiteSpace=wrap;html=1;fontSize=12;glass=0;strokeWidth=1;shadow=0;" vertex="1" parent="h0yC3FJWzokE1WFjoLc8-29">
          <mxGeometry x="20" y="35" width="120" height="40" as="geometry" />
        </mxCell>
        <mxCell id="h0yC3FJWzokE1WFjoLc8-31" value="当事人营业执照复印件" style="rounded=1;whiteSpace=wrap;html=1;fontSize=12;glass=0;strokeWidth=1;shadow=0;" vertex="1" parent="h0yC3FJWzokE1WFjoLc8-29">
          <mxGeometry x="20" y="90" width="120" height="40" as="geometry" />
        </mxCell>
        <mxCell id="h0yC3FJWzokE1WFjoLc8-32" value="当事单位法定代表人身份证复印件" style="rounded=1;whiteSpace=wrap;html=1;fontSize=12;glass=0;strokeWidth=1;shadow=0;" vertex="1" parent="h0yC3FJWzokE1WFjoLc8-29">
          <mxGeometry x="20" y="146" width="120" height="40" as="geometry" />
        </mxCell>
        <mxCell id="h0yC3FJWzokE1WFjoLc8-33" value="单位" style="text;html=1;align=center;verticalAlign=middle;resizable=0;points=[];autosize=1;strokeColor=none;fillColor=none;fontSize=12;fontFamily=Helvetica;fontColor=default;" vertex="1" parent="1">
          <mxGeometry x="464.5" y="370" width="40" height="20" as="geometry" />
        </mxCell>
        <mxCell id="h0yC3FJWzokE1WFjoLc8-35" value="&lt;span style=&quot;&quot;&gt;执法人员出示执法证&lt;/span&gt;" style="text;html=1;align=center;verticalAlign=middle;resizable=0;points=[];autosize=1;strokeColor=none;fillColor=none;" vertex="1" parent="1">
          <mxGeometry x="354" y="310" width="120" height="20" as="geometry" />
        </mxCell>
        <mxCell id="h0yC3FJWzokE1WFjoLc8-38" value="存档附件" style="swimlane;fontSize=14;" vertex="1" parent="1">
          <mxGeometry x="334" y="830" width="160" height="250" as="geometry" />
        </mxCell>
        <mxCell id="h0yC3FJWzokE1WFjoLc8-39" value="当事人身份证复印件&lt;br&gt;（单位）单位资料" style="rounded=1;whiteSpace=wrap;html=1;fontSize=12;glass=0;strokeWidth=1;shadow=0;" vertex="1" parent="h0yC3FJWzokE1WFjoLc8-38">
          <mxGeometry x="20" y="35" width="120" height="40" as="geometry" />
        </mxCell>
        <mxCell id="h0yC3FJWzokE1WFjoLc8-40" value="现场照片" style="rounded=1;whiteSpace=wrap;html=1;fontSize=12;glass=0;strokeWidth=1;shadow=0;" vertex="1" parent="h0yC3FJWzokE1WFjoLc8-38">
          <mxGeometry x="20" y="90" width="120" height="40" as="geometry" />
        </mxCell>
        <mxCell id="h0yC3FJWzokE1WFjoLc8-41" value="缴纳罚款票据复印件" style="rounded=1;whiteSpace=wrap;html=1;fontSize=12;glass=0;strokeWidth=1;shadow=0;" vertex="1" parent="h0yC3FJWzokE1WFjoLc8-38">
          <mxGeometry x="20" y="146" width="120" height="40" as="geometry" />
        </mxCell>
        <mxCell id="h0yC3FJWzokE1WFjoLc8-42" value="执法证复印件" style="rounded=1;whiteSpace=wrap;html=1;fontSize=12;glass=0;strokeWidth=1;shadow=0;" vertex="1" parent="1">
          <mxGeometry x="354" y="1030" width="120" height="40" as="geometry" />
        </mxCell>
      </root>
    </mxGraphModel>
  </diagram>
</mxfile>
